<svg id="Layer_1" data-name="Layer 1" xmlns="http://www.w3.org/2000/svg" viewBox="0 0 563.67 800"><title>Bottle-stream</title><path d="M25,77.29A6.3,6.3,0,0,0,19.17,71c-8.63-.71-26.94-2.31-27-2.31L-383.34,30l-0.61,7.49-2.53,31.23C-387.23,78-377.31,83-371.15,83.5l204.73,16.79c24.12,2,47.25-28.36,64.19-27l39.36,3.23a6.28,6.28,0,0,0,.83.13l26.85,2.14L-8.86,81V80.91L-4,81.29l6.5,0.51a6.32,6.32,0,0,1,5.81,6.31L8.76,757.74a6.31,6.31,0,0,0,6,6.32l4,0.16a6.31,6.31,0,0,0,6.55-6.33C25.28,691.24,25,140.69,25,77.29Z"/></svg>