<svg id="Layer_1" data-name="Layer 1" xmlns="http://www.w3.org/2000/svg" viewBox="0 0 563.67 179.67"><defs><style>.cls-1{fill:#fff;}</style></defs><title>Bottle-right</title><path d="M564,183.71H-0.36V12.17A615.34,615.34,0,0,1,162.46,4.9c95.25,8.35,135.39,34,219.68,37.21,41.29,1.6,104-1.75,181.87-30V183.71Z"/><path class="cls-1" d="M495.12,83.95l74.16-35.63-4.77-10-2.82-5.95-4.77-10L482.76,57.93c-13.44,6.46-41.83-11.12-61-1.91L259.18,134.13c-4.89,2.35-11.47,9.55-8,16.92L263,175.85l2.82,5.95,11.78,24.8c3.5,7.37,13.21,6.75,18.1,4.4l162.59-78.11C477.44,123.68,481.67,90.41,495.12,83.95ZM463.65,74c-3-.57-6.7-1.06-10.9-1.49a125.76,125.76,0,0,0-14-.52c-2.46.27-5,.57-7.54,1-2.35,1.1-4.44,1.19-7.22,2.92L407.2,84.77c-11.69,6.1-24.32,12.26-36.94,18.44-25.34,12.14-51.05,23.55-70.62,31.48-9.75,4-18.07,7-23.8,9.24s-9.15,3.28-9.15,3.28,3-1.94,8.28-5.1,12.86-7.72,22.11-12.81C315.52,119,340.49,106,365.81,93.85c12.71-6,25.41-12,37.48-17.31l17.42-7.59c2.48-1.31,6.38-2,9.37-2.77,3.08-.18,6-0.15,8.81-0.11l7.78,1c2.39,0.58,4.64,1.14,6.78,1.64,4.2,1.17,7.81,2.27,10.73,3.34a81.33,81.33,0,0,1,9,3.7S469.69,75,463.65,74Z"/></svg>