<svg id="Layer_1" data-name="Layer 1" xmlns="http://www.w3.org/2000/svg" viewBox="0 0 564.67 800"><defs><style>.cls-1{fill:#fff;}</style></defs><title>Bottle-left</title><rect x="0.35" width="564.32" height="802"/><path class="cls-1" d="M439.84,24.14C429.24,14.32,417.23,3.2,402.74,2L378.23,0H176.36c0,0.32-.11.63-0.13,1l-5.67,70c-0.44,5.46,1.9,10.49,6.6,14.17A24.16,24.16,0,0,0,189.52,90l204.73,16.82c0.86,0.07,1.73.17,2.6,0.17h0c13.52,0,26.29-8.51,37.56-16,8.71-5.76,16.93-11.26,23.2-11.26,0.28,0,.55,0,0.82,0l97.34,8L559.08,47l-97.34-8C455.39,38.54,447.83,31.54,439.84,24.14Zm-6.42,23.73c-2.64-2.3-6-4.91-9.89-7.76a144.06,144.06,0,0,0-13.47-8.57c-2.58-1.15-5.28-2.34-8-3.37-2.95-.27-5-1.39-8.78-1.28l-21.62-1c-15-.73-31-1.94-46.91-3.12-31.89-2.65-63.72-6.24-87.52-9.7-11.91-1.64-21.78-3.53-28.72-4.62s-10.88-2-10.88-2,4-.2,11.07-0.25,17.07-.2,29.08.12c24,0.46,56,2.11,87.93,4.69,15.93,1.42,31.88,2.82,46.79,4.56L394,18.13c3.19,0.14,7.42,1.7,10.81,2.67,3.13,1.6,6,3.32,8.74,5l7.08,5.51c2,2,3.93,3.8,5.74,5.53,3.48,3.57,6.4,6.74,8.67,9.47a93.5,93.5,0,0,1,6.76,8.83S438.81,52.33,433.42,47.87Z"/><rect x="550.94" y="256.11" width="5.83" height="2.27"/><path d="M585.95,79.79a6.3,6.3,0,0,0-5.78-6.29c-8.63-.71-26.94-2.31-27-2.31L177.66,32.51,177,40l-2.53,31.23c-0.75,9.28,9.17,14.27,15.33,14.77l204.73,16.79c24.12,2,47.25-28.36,64.19-27L498.12,79a6.28,6.28,0,0,0,.83.13l26.85,2.14,26.33,2.16V83.41L557,83.79l6.5,0.51a6.32,6.32,0,0,1,5.81,6.31l0.47,669.64a6.31,6.31,0,0,0,6,6.32l4,0.16a6.31,6.31,0,0,0,6.55-6.33C586.28,693.74,586,143.19,585.95,79.79Z"/></svg>