<svg id="Layer_1" data-name="Layer 1" xmlns="http://www.w3.org/2000/svg" xmlns:xlink="http://www.w3.org/1999/xlink" viewBox="0 0 1424 800"><defs><style>.cls-1{fill:#fff;}.cls-2{fill:url(#linear-gradient);}</style><linearGradient id="linear-gradient" x1="711.17" y1="30.01" x2="711.17" y2="823.5" gradientUnits="userSpaceOnUse"><stop offset="0" stop-color="#ea145e"/><stop offset="1" stop-color="#802fec"/></linearGradient></defs><title>Bottle-full-01</title><rect y="-3" width="1424" height="110.5"/><path class="cls-1" d="M588,21.64C577.41,11.82,565.4.7,550.91-.49l-24.51-2H324.53c0,0.32-.11.63-0.13,1l-5.67,70c-0.44,5.46,1.9,10.49,6.6,14.17a24.16,24.16,0,0,0,12.37,4.94l204.73,16.82c0.86,0.07,1.73.17,2.6,0.17h0c13.52,0,26.29-8.51,37.56-16,8.71-5.76,16.93-11.26,23.2-11.26,0.28,0,.55,0,0.82,0l97.34,8,3.3-40.74-97.34-8C603.55,36,596,29,588,21.64Zm-6.42,23.73c-2.64-2.3-6-4.91-9.89-7.76A144.06,144.06,0,0,0,558.22,29c-2.58-1.15-5.28-2.34-8-3.37-2.95-.27-5-1.39-8.78-1.28l-21.62-1c-15-.73-31-1.94-46.91-3.12C441,17.65,409.2,14.06,385.4,10.6,373.49,9,363.62,7.07,356.68,6s-10.88-2-10.88-2,4-.2,11.07-0.25,17.07-.2,29.08.12c24,0.46,56,2.11,87.93,4.69,15.93,1.42,31.88,2.82,46.79,4.56l21.49,2.56c3.19,0.14,7.42,1.7,10.81,2.67,3.13,1.6,6,3.32,8.74,5l7.08,5.51c2,2,3.93,3.8,5.74,5.53,3.48,3.57,6.4,6.74,8.67,9.47A93.5,93.5,0,0,1,590,52.6S587,49.83,581.59,45.37Z"/><path class="cls-2" d="M965,657.94c-90.75-1.61-161.07-7.94-230.71-15.42C734.15,455.3,734.08,124,734,77.29A6.26,6.26,0,0,0,728.3,71c-8.63-.71-26.92-2.31-27-2.31L325.81,30c-0.36,4.42-.6,7.49-0.6,7.49l-2.53,31.23C321.93,78,331.86,83,338,83.5l204.73,16.79c24.12,2,47.25-28.36,64.19-27l39.36,3.23a6.28,6.28,0,0,0,.83.13L674,78.81,700.31,81V80.91l4.83,0.39,6.5,0.51a6.32,6.32,0,0,1,5.81,6.31l0.37,552.61c-88.26-9.69-177.95-20.77-307.93-26A3364,3364,0,0,0-1.83,623.14V823.5h1426V623.14C1227.17,655.91,1069.28,659.8,965,657.94Z"/><path class="cls-1" d="M1373.95,693.36l74.16-35.63-4.77-10-2.82-5.95-4.77-10-74.16,35.63c-13.44,6.46-41.83-11.12-61-1.91L1138,743.54c-4.89,2.35-11.47,9.55-8,16.92l11.78,24.81,2.82,5.95,11.78,24.8c3.5,7.37,13.21,6.75,18.1,4.4l162.59-78.11C1356.27,733.09,1360.5,699.82,1373.95,693.36Zm-31.47-9.94c-3-.57-6.7-1.06-10.9-1.49a125.76,125.76,0,0,0-14-.52c-2.46.27-5,.57-7.54,1-2.35,1.1-4.44,1.19-7.22,2.92L1286,694.18c-11.69,6.1-24.32,12.26-36.94,18.44-25.34,12.14-51.05,23.55-70.62,31.48-9.75,4-18.07,7-23.8,9.24s-9.15,3.28-9.15,3.28,3-1.94,8.28-5.1,12.86-7.72,22.11-12.81c18.43-10.32,43.41-23.26,68.73-35.46,12.71-6,25.41-12,37.48-17.31l17.42-7.59c2.48-1.31,6.38-2,9.37-2.77,3.08-.18,6-0.15,8.81-0.11l7.78,1c2.39,0.58,4.64,1.14,6.78,1.64,4.2,1.17,7.81,2.27,10.73,3.34a81.33,81.33,0,0,1,9,3.7S1348.52,684.41,1342.48,683.42Z"/></svg>